<svg width="200" height="34" viewBox="0 0 200 34" fill="none" xmlns="http://www.w3.org/2000/svg">
<path d="M71.1691 21.6313C71.1691 14.5643 75.7568 9.97156 82.7045 9.97156C89.4281 9.97156 93.9755 14.2108 94.0629 20.8813C94.0685 21.5921 94.01 22.302 93.888 23.0021H77.5923V23.3102C77.7223 26.5344 79.7775 28.4785 82.8793 28.4785C85.3693 28.4785 87.1152 27.375 87.6418 25.2543H93.7132C93.0095 29.6725 89.1255 33.2049 83.1482 33.2049C75.6694 33.2049 71.1691 28.6552 71.1691 21.6313ZM87.8548 18.9373C87.4177 16.1549 85.5396 14.6096 82.7426 14.6096C80.0778 14.6096 78.0675 16.2432 77.7178 18.9373H87.8548Z" fill="white"/>
<path d="M118.57 20.3511V32.9398H112.409V20.9697C112.409 17.1178 110.968 15.0945 107.866 15.0945C104.677 15.0945 102.842 17.392 102.842 21.3231V32.9398H96.6807V10.2367H102.06L102.391 11.8839C102.412 11.9912 102.461 12.0909 102.533 12.1728C102.605 12.2548 102.697 12.316 102.799 12.3504C102.902 12.3847 103.012 12.3908 103.118 12.3682C103.224 12.3455 103.322 12.2949 103.402 12.2215C104.792 10.8915 106.699 9.97156 109.574 9.97156C114.42 9.97156 118.57 12.5772 118.57 20.3511Z" fill="white"/>
<path d="M121.089 21.6313C121.089 14.5643 125.677 9.97156 132.625 9.97156C139.348 9.97156 143.896 14.2108 143.983 20.8813C143.989 21.5921 143.93 22.302 143.808 23.0021H127.524V23.3102C127.654 26.5344 129.709 28.4785 132.811 28.4785C135.301 28.4785 137.049 27.375 137.571 25.2543H143.645C142.946 29.6703 139.057 33.2049 133.073 33.2049C125.59 33.2049 121.089 28.6552 121.089 21.6313ZM137.78 18.9373C137.331 16.1549 135.464 14.6096 132.667 14.6096C130.003 14.6096 127.992 16.2432 127.643 18.9373H137.78Z" fill="white"/>
<path d="M151.834 25.3857C152.058 27.3751 153.757 28.7436 156.765 28.7436C159.342 28.7436 160.913 27.903 160.913 26.3147C160.913 24.459 159.385 24.3253 155.758 23.8404C150.516 23.2219 146.453 22.0278 146.453 17.3467C146.453 12.8423 150.341 9.88319 156.108 9.92624C162.137 9.92624 166.288 12.6225 166.595 17.2583H160.694C160.519 15.4457 158.815 14.3445 156.325 14.3445C153.921 14.3445 152.35 15.2282 152.35 16.6851C152.35 18.4071 154.27 18.5838 157.504 18.9826C162.659 19.5128 166.942 20.7046 166.942 25.8275C166.942 30.3342 162.746 33.2049 156.718 33.2049C150.469 33.2049 146.233 30.2458 145.96 25.3857H151.834Z" fill="white"/>
<path d="M169.21 4.31843C169.21 2.27922 170.779 0.783813 172.796 0.783813C174.813 0.783813 176.382 2.28602 176.382 4.31843C176.382 6.30552 174.813 7.80774 172.796 7.80774C170.779 7.80774 169.21 6.30552 169.21 4.31843ZM169.692 10.2367H175.896V32.9398H169.692V10.2367Z" fill="white"/>
<path d="M184.349 25.3857C184.573 27.3751 186.272 28.7436 189.28 28.7436C191.857 28.7436 193.431 27.903 193.431 26.3147C193.431 24.459 191.902 24.3253 188.276 23.8404C183.032 23.2219 178.968 22.0278 178.968 17.3467C178.968 12.8423 182.857 9.88319 188.626 9.92624C194.654 9.92624 198.805 12.6225 199.11 17.2583H193.211C193.036 15.4457 191.333 14.3445 188.843 14.3445C186.44 14.3445 184.867 15.2282 184.867 16.6851C184.867 18.4071 186.79 18.5838 190.022 18.9826C195.177 19.5128 199.459 20.7046 199.459 25.8275C199.459 30.3342 195.266 33.2049 189.235 33.2049C182.989 33.2049 178.751 30.2458 178.477 25.3857H184.349Z" fill="white"/>
<path d="M54.7859 15.7583V21.0127H60.6332C61.1867 21.0376 62.5673 21.271 61.9891 23.0111C60.8282 26.1991 57.7689 27.5948 54.7411 27.5948C49.4989 27.5948 46.4487 23.4439 46.4487 17.4803C46.4487 11.5168 49.6379 7.36586 54.7411 7.36586C58.4996 7.36586 60.9447 9.61805 61.7314 13.0303H68.2846C67.5047 6.39837 62.3589 1.81923 55.0436 1.76711C46.5271 1.70594 39.7587 8.87941 39.7565 17.4826C39.7565 26.9853 45.5656 33.2162 54.304 33.2162C57.7174 33.2162 60.2858 32.0833 62.0138 30.5494C62.1389 30.4397 62.2905 30.3657 62.4533 30.3348C62.616 30.3039 62.7839 30.3172 62.9399 30.3735C63.0958 30.4297 63.2342 30.5268 63.3408 30.6549C63.4474 30.7829 63.5185 30.9373 63.5467 31.1022L63.8739 32.9511H68.4594V15.7583H54.7859Z" fill="white"/>
<path d="M22.8131 29.7428C22.8128 29.0118 22.955 28.2879 23.2315 27.6125C23.5079 26.9371 23.9133 26.3234 24.4245 25.8064C24.9357 25.2895 25.5426 24.8794 26.2105 24.5996C26.8785 24.3198 27.5944 24.1757 28.3175 24.1757H31.5448V15.8739H23.3331V19.0732C23.3327 20.5312 22.7664 21.9308 21.7559 22.971C20.7454 24.0112 19.3715 24.609 17.9295 24.6357V24.6357H8.22965V10.2366H19.9959V1.93481H4.27171C3.13878 1.93481 2.05225 2.38981 1.25115 3.1997C0.450049 4.00959 0 5.10805 0 6.2534V28.6212C0 29.7666 0.450049 30.865 1.25115 31.6749C2.05225 32.4848 3.13878 32.9398 4.27171 32.9398H22.8131V29.7428Z" fill="white"/>
</svg>
